<?xml version="1.0" encoding="iso-8859-1"?>
<!-- Generator: Adobe Illustrator 19.0.0, SVG Export Plug-In . SVG Version: 6.00 Build 0)  -->
<svg version="1.1" id="Capa_1" xmlns="http://www.w3.org/2000/svg" xmlns:xlink="http://www.w3.org/1999/xlink" x="0px" y="0px"
	 viewBox="0 0 480 480" style="enable-background:new 0 0 480 480; fill: #444;" xml:space="preserve">
<g>
	<g>
		<path d="M105.244,146.336c-0.001,0-0.003,0-0.004,0c-12.708-0.822-23.715,8.727-24.696,21.424
			c-0.902,12.74,8.692,23.799,21.432,24.704c0.544,0,1.104,0.056,1.648,0.056c12.118-0.027,22.165-9.394,23.04-21.48
			C127.571,158.303,117.981,147.243,105.244,146.336z M110.688,169.88c-0.29,3.918-3.689,6.866-7.608,6.6
			c-3.922-0.277-6.878-3.678-6.608-7.6c0.288-3.724,3.393-6.599,7.128-6.6c0.166,0,0.32,0,0.488,0
			C108.009,162.557,110.963,165.959,110.688,169.88z"/>
	</g>
</g>
<g>
	<g>
		<path d="M472,176c4.418,0,8-3.582,8-8V99.528c-0.017-10.315-6.623-19.465-16.408-22.728L428.24,64.976l-56.168-53.848
			C364.635,3.973,354.712-0.016,344.392,0H188.168c-9.795-0.004-19.251,3.592-26.568,10.104l-61.184,54.4l-66.976,11.2
			C14.134,78.856-0.032,95.551,0,115.112V168c0,4.418,3.582,8,8,8h40.64c1.744,12.165,7.456,23.414,16.248,32H8
			c-4.418,0-8,3.582-8,8v32c0,4.418,3.582,8,8,8h29.88l153.992,88L37.88,432H8c-4.418,0-8,3.582-8,8v32c0,4.418,3.582,8,8,8h464
			c4.418,0,8-3.582,8-8v-32c0-4.418-3.582-8-8-8h-29.88l-153.992-88l153.992-88H472c4.418,0,8-3.582,8-8v-32c0-4.418-3.582-8-8-8
			h-40.888c8.792-8.586,14.504-19.835,16.248-32H472z M296,16h48.392c6.191-0.011,12.145,2.381,16.608,6.672L404.104,64H296V16z
			 M172.216,22.064c4.395-3.907,10.071-6.065,15.952-6.064H280v48H125.04L172.216,22.064z M336.64,176
			c1.744,12.165,7.456,23.414,16.248,32H143.112c8.792-8.586,14.504-19.835,16.248-32H336.64z M60.64,132.632
			c-0.904,1.104-1.752,2.256-2.568,3.424c-0.168,0.248-0.352,0.472-0.52,0.712c-0.971,1.44-1.872,2.923-2.704,4.448
			c-0.216,0.384-0.384,0.8-0.592,1.192c-0.592,1.144-1.168,2.296-1.68,3.488c-0.256,0.592-0.464,1.2-0.696,1.792
			c-0.408,1.032-0.8,2.056-1.144,3.112c-0.224,0.688-0.4,1.384-0.6,2.08c-0.28,1.008-0.552,2.016-0.8,3.048
			c-0.16,0.736-0.288,1.488-0.424,2.24c-0.112,0.608-0.264,1.208-0.352,1.832H16v-32h16v-16H16.28
			c1.319-10.475,9.361-18.839,19.776-20.568L104.664,80H280v80H159.432c-0.088-0.616-0.24-1.216-0.352-1.824
			c-0.136-0.76-0.264-1.512-0.432-2.256c-0.224-1.024-0.496-2.032-0.8-3.032c-0.2-0.696-0.376-1.4-0.6-2.088
			c-0.344-1.056-0.736-2.08-1.144-3.112c-0.232-0.592-0.44-1.2-0.696-1.792c-0.512-1.192-1.088-2.344-1.68-3.488
			c-0.208-0.392-0.376-0.8-0.592-1.192c-0.832-1.531-1.733-3.011-2.704-4.44c-0.168-0.264-0.368-0.496-0.552-0.752
			c-0.8-1.16-1.6-2.296-2.536-3.392c-0.368-0.456-0.8-0.88-1.168-1.328c-0.744-0.856-1.488-1.704-2.28-2.504
			c-0.472-0.48-0.968-0.928-1.456-1.392c-0.76-0.72-1.528-1.44-2.328-2.12c-0.544-0.456-1.096-0.888-1.656-1.32
			c-0.8-0.632-1.6-1.24-2.4-1.824c-0.6-0.424-1.208-0.8-1.824-1.216c-0.84-0.544-1.688-1.064-2.56-1.6
			c-0.648-0.368-1.296-0.72-1.952-1.064c-0.888-0.464-1.8-0.896-2.712-1.312c-0.68-0.304-1.352-0.608-2.04-0.888
			c-0.952-0.384-1.92-0.728-2.896-1.056c-0.688-0.24-1.368-0.488-2.072-0.696c-1.032-0.304-2.08-0.552-3.128-0.8
			c-0.68-0.16-1.352-0.336-2.04-0.472c-1.176-0.232-2.4-0.392-3.568-0.552c-0.592-0.072-1.168-0.184-1.768-0.24
			C107.68,112.104,105.848,112,104,112s-3.68,0.104-5.48,0.28c-0.6,0.056-1.176,0.168-1.768,0.24c-1.2,0.16-2.4,0.32-3.568,0.552
			c-0.688,0.136-1.36,0.312-2.032,0.472c-1.056,0.248-2.104,0.504-3.136,0.8c-0.704,0.208-1.384,0.456-2.072,0.696
			c-0.976,0.328-1.944,0.672-2.896,1.056c-0.688,0.28-1.36,0.584-2.04,0.888c-0.912,0.416-1.824,0.848-2.712,1.312
			c-0.656,0.344-1.304,0.696-1.952,1.064c-0.872,0.496-1.72,1.016-2.568,1.6c-0.608,0.392-1.216,0.8-1.816,1.208
			c-0.8,0.584-1.64,1.2-2.4,1.832c-0.56,0.432-1.112,0.864-1.656,1.32c-0.8,0.68-1.6,1.4-2.328,2.12
			c-0.488,0.464-0.984,0.912-1.456,1.392c-0.8,0.8-1.536,1.648-2.28,2.504c-0.424,0.416-0.84,0.84-1.208,1.296H60.64z M64,168
			c0-22.091,17.909-40,40-40s40,17.909,40,40s-17.909,40-40,40C81.92,207.974,64.026,190.08,64,168z M202.088,356.592
			c0,0.112,0.104,0.216,0.144,0.328c0.772,2.182,1.73,4.294,2.864,6.312c0.2,0.368,0.408,0.72,0.624,1.08
			c1.185,1.999,2.543,3.892,4.056,5.656c0.072,0.08,0.12,0.184,0.192,0.264L101.872,432H70.128L202.088,356.592z M224.112,380.592
			c10.125,4.46,21.659,4.46,31.784,0L345.872,432H134.12L224.112,380.592z M464,448v16H16v-16H464z M409.872,432h-31.744
			l-118.04-67.448c-2.484-1.414-5.533-1.396-8,0.048c-7.41,4.511-16.718,4.511-24.128,0c-7.389-4.228-11.952-12.086-11.96-20.6
			c0-0.705-0.094-1.408-0.28-2.088c-0.048-0.184-0.152-0.352-0.216-0.528c-0.15-0.482-0.345-0.948-0.584-1.392
			c-0.112-0.2-0.288-0.36-0.416-0.552c-0.248-0.386-0.529-0.75-0.84-1.088c-0.23-0.197-0.47-0.381-0.72-0.552
			c-0.29-0.264-0.6-0.505-0.928-0.72L70.128,256h31.744l118.04,67.448c2.484,1.414,5.533,1.396,8-0.048
			c7.41-4.511,16.718-4.511,24.128,0c7.389,4.228,11.952,12.087,11.96,20.6c0,0.705,0.094,1.408,0.28,2.088
			c0.048,0.184,0.152,0.352,0.216,0.528c0.15,0.482,0.345,0.948,0.584,1.392c0.112,0.2,0.288,0.36,0.416,0.552
			c0.248,0.386,0.529,0.75,0.84,1.088c0.23,0.197,0.47,0.382,0.72,0.552c0.29,0.264,0.6,0.505,0.928,0.72L409.872,432z M134.128,256
			H345.88l-89.992,51.424c-10.124-4.468-21.66-4.468-31.784,0L134.128,256z M277.912,331.408c0-0.112-0.104-0.216-0.144-0.328
			c-0.772-2.182-1.73-4.294-2.864-6.312c-0.2-0.368-0.408-0.72-0.624-1.08c-1.185-1.999-2.543-3.892-4.056-5.656
			c-0.072-0.08-0.12-0.184-0.192-0.264L378.128,256h31.744L277.912,331.408z M464,224v16H16v-16H464z M392,208
			c-22.091,0-40-17.909-40-40s17.909-40,40-40c22.091,0,40,17.909,40,40C431.974,190.08,414.081,207.974,392,208z M446.648,155.92
			c-0.224-1.024-0.496-2.032-0.8-3.032c-0.2-0.696-0.376-1.4-0.6-2.088c-0.344-1.056-0.736-2.08-1.144-3.112
			c-0.232-0.592-0.44-1.2-0.696-1.792c-0.512-1.192-1.088-2.344-1.68-3.488c-0.208-0.392-0.376-0.8-0.592-1.192
			c-0.832-1.531-1.733-3.011-2.704-4.44c-0.168-0.264-0.368-0.496-0.552-0.752c-0.8-1.16-1.6-2.296-2.536-3.392
			c-0.368-0.456-0.8-0.88-1.168-1.328c-0.744-0.856-1.488-1.704-2.28-2.504c-0.472-0.48-0.968-0.928-1.456-1.392
			c-0.76-0.72-1.528-1.44-2.328-2.12c-0.544-0.456-1.096-0.888-1.656-1.32c-0.8-0.632-1.6-1.24-2.4-1.824
			c-0.6-0.424-1.208-0.8-1.824-1.216c-0.84-0.544-1.688-1.064-2.56-1.6c-0.648-0.368-1.296-0.72-1.952-1.064
			c-0.888-0.464-1.8-0.896-2.712-1.312c-0.68-0.304-1.352-0.608-2.04-0.888c-0.952-0.384-1.92-0.728-2.896-1.056
			c-0.688-0.24-1.368-0.488-2.072-0.696c-1.032-0.304-2.08-0.552-3.128-0.8c-0.68-0.16-1.352-0.336-2.04-0.472
			c-1.176-0.232-2.4-0.392-3.568-0.552c-0.592-0.072-1.168-0.184-1.768-0.24C395.68,112.104,393.848,112,392,112
			c-1.848,0-3.68,0.104-5.48,0.28c-0.6,0.056-1.176,0.168-1.768,0.24c-1.2,0.16-2.4,0.32-3.568,0.552
			c-0.688,0.136-1.36,0.312-2.032,0.472c-1.056,0.248-2.104,0.504-3.136,0.8c-0.704,0.208-1.384,0.456-2.072,0.696
			c-0.976,0.328-1.944,0.672-2.896,1.056c-0.688,0.28-1.36,0.584-2.04,0.888c-0.912,0.416-1.824,0.848-2.712,1.312
			c-0.656,0.344-1.304,0.696-1.952,1.064c-0.872,0.496-1.72,1.016-2.568,1.6c-0.608,0.392-1.216,0.8-1.816,1.208
			c-0.8,0.584-1.6,1.2-2.4,1.832c-0.56,0.432-1.112,0.864-1.656,1.32c-0.8,0.68-1.6,1.4-2.328,2.12
			c-0.488,0.464-0.984,0.912-1.456,1.392c-0.8,0.8-1.536,1.648-2.28,2.504c-0.384,0.448-0.8,0.872-1.168,1.328
			c-0.904,1.104-1.752,2.256-2.568,3.424c-0.168,0.248-0.352,0.472-0.52,0.712c-0.965,1.44-1.867,2.923-2.704,4.448
			c-0.216,0.384-0.384,0.8-0.592,1.192c-0.592,1.144-1.168,2.296-1.68,3.488c-0.256,0.592-0.464,1.2-0.696,1.792
			c-0.408,1.032-0.8,2.056-1.144,3.112c-0.224,0.688-0.4,1.384-0.6,2.08c-0.28,1.008-0.552,2.016-0.8,3.048
			c-0.16,0.736-0.288,1.488-0.424,2.24c-0.112,0.608-0.264,1.208-0.352,1.832H296V80h126.704l35.824,11.944
			c3.266,1.088,5.469,4.142,5.472,7.584V104h-16v16h16v40h-16.568c-0.088-0.616-0.24-1.216-0.352-1.824
			C446.944,157.416,446.816,156.664,446.648,155.92z"/>
	</g>
</g>
<g>
	<g>
		<path d="M393.245,146.336c-0.002,0-0.003,0-0.004,0h0c-12.704-0.808-23.703,8.733-24.696,21.424
			c-0.902,12.74,8.692,23.799,21.432,24.704c0.544,0,1.104,0.056,1.648,0.056c12.118-0.027,22.165-9.394,23.04-21.48
			C415.571,158.303,405.981,147.243,393.245,146.336z M398.712,169.88c-0.282,3.925-3.682,6.885-7.608,6.624
			c-3.922-0.277-6.878-3.678-6.608-7.6c0.276-3.724,3.37-6.609,7.104-6.624c0.176,0,0.336,0,0.512,0
			C396.033,162.557,398.987,165.959,398.712,169.88z"/>
	</g>
</g>
<g>
	<g>
		<rect x="216" y="96" width="48" height="16"/>
	</g>
</g>
<g>
	<g>
		<rect x="232" y="336" width="16" height="16"/>
	</g>
</g>
<g>
</g>
<g>
</g>
<g>
</g>
<g>
</g>
<g>
</g>
<g>
</g>
<g>
</g>
<g>
</g>
<g>
</g>
<g>
</g>
<g>
</g>
<g>
</g>
<g>
</g>
<g>
</g>
<g>
</g>
</svg>
