<svg id="Capa_1" enable-background="new 0 0 512.126 512.126" height="512" viewBox="0 0 512.126 512.126" width="512" xmlns="http://www.w3.org/2000/svg" style="fill:#fff;"><g><path d="m504.001 284.881c1.355-2.695 2.137-5.727 2.137-8.943v-14.298c0-9.237-6.303-17.009-14.828-19.297.539-1.808.839-3.719.839-5.7v-14.299c0-11.027-8.972-19.998-19.999-19.998h-33.198c-4.143 0-7.5 3.357-7.5 7.5s3.357 7.5 7.5 7.5h33.198c2.757 0 4.999 2.242 4.999 4.998v14.299c0 2.756-2.242 4.998-4.999 4.998h-64.323c-4.924-8.014-10.36-16.098-16.334-24.295h17.495c4.143 0 7.5-3.357 7.5-7.5s-3.357-7.5-7.5-7.5h-28.928c-2.6-3.273-5.278-6.565-8.05-9.883h3.402c15.246 0 27.649-12.403 27.649-27.648 0-15.246-12.403-27.649-27.649-27.649h-13.202l26.641-62.989c3.733-8.827 2.801-18.866-2.493-26.854-5.295-7.988-14.177-12.757-23.76-12.757h-35.375l.053-.206c2.125-8.283.337-16.909-4.905-23.665s-13.155-10.631-21.707-10.631h-89.328c-8.552 0-16.463 3.875-21.705 10.631s-7.03 15.382-4.905 23.665l.053.206h-35.375c-9.583 0-18.465 4.769-23.76 12.757-5.294 7.987-6.227 18.026-2.493 26.854l6.972 16.483c1.613 3.815 6.014 5.598 9.829 3.985 3.814-1.613 5.6-6.014 3.985-9.829l-6.972-16.483c-1.795-4.244-1.364-8.882 1.182-12.723s6.649-6.044 11.257-6.044h39.222l12.148 47.375c1.028 4.012 5.114 6.434 9.128 5.401 4.012-1.028 6.431-5.115 5.401-9.128-3.39-13.218-12.485-48.688-16.048-62.581-.964-3.761-.152-7.676 2.228-10.743s5.971-4.826 9.854-4.826h89.328c3.883 0 7.474 1.759 9.854 4.826s3.191 6.982 2.228 10.743c-3.556 13.865-12.643 49.302-16.048 62.581-1.029 4.013 1.39 8.1 5.401 9.128 4.027 1.032 8.103-1.403 9.128-5.401l12.148-47.375h39.222c4.607 0 8.711 2.203 11.257 6.044s2.977 8.479 1.182 12.723l-29.112 68.833h-58.257l2.45-9.081c1.079-3.999-1.289-8.115-5.288-9.194-3.999-1.081-8.115 1.288-9.194 5.288l-3.504 12.987h-32.258l-3.504-12.987c-1.079-4-5.197-6.368-9.194-5.288-3.999 1.079-6.367 5.195-5.288 9.194l2.45 9.081h-58.257l-10.46-24.731c-1.613-3.815-6.014-5.598-9.829-3.985-3.814 1.613-5.6 6.014-3.985 9.829l7.989 18.888h-13.202c-15.245 0-27.648 12.403-27.648 27.649 0 15.245 12.403 27.648 27.648 27.648h3.403c-14.123 16.903-25.987 33.18-35.818 49.178h-84.18c-11.027-.001-19.999 8.97-19.999 19.998v14.298c0 6.579 3.207 12.408 8.125 16.055-1.355 2.695-2.137 5.727-2.137 8.943v14.298c0 3.217.781 6.248 2.137 8.943-4.918 3.647-8.125 9.476-8.125 16.055v14.298c0 4.728 1.658 9.072 4.412 12.499-2.754 3.427-4.412 7.77-4.412 12.498v14.298c0 11.027 8.972 19.999 19.999 19.999h47.782c.865 7.026 1.948 14.21 3.26 21.583.4 2.25-.529 4.561-2.366 5.886l-6.161 4.445c-8.721 6.291-14.217 16.047-15.079 26.766-.861 10.719 3.005 21.228 10.608 28.832 15.965 15.965 42.411 13.809 55.598-4.471l10.896-15.101c1.313-1.822 3.665-2.589 5.849-1.911 6.424 1.996 13.354 3.849 20.599 5.508 4.037.923 8.06-1.599 8.984-5.637.925-4.037-1.599-8.06-5.637-8.984-6.874-1.574-13.434-3.328-19.495-5.211-8.347-2.594-17.376.404-22.465 7.46l-10.895 15.101c-7.856 10.887-23.489 11.975-32.826 2.64-4.489-4.49-6.772-10.694-6.264-17.023.509-6.328 3.754-12.089 8.902-15.803l6.162-4.445c6.48-4.677 9.761-12.793 8.357-20.679-8.517-47.857-7.223-87.399 4.07-124.439 13.287-43.582 39.946-81.669 69.854-115.877h65.116c-1.501 10.954-7.418 31.263-30.46 39.748-41 15.097-45.883 43.94-46.071 45.161-.63 4.094 2.179 7.924 6.272 8.554.387.06.771.088 1.149.088 3.639 0 6.834-2.653 7.404-6.36.032-.212 4.156-21.484 36.429-33.366 26.286-9.68 36.758-32.235 39.785-49.197 2.56 1.628 5.411 3.621 8.26 5.959 11.07 9.088 16.607 18.702 16.46 28.577-.062 4.142 3.245 7.55 7.387 7.611 4.161.092 7.549-3.245 7.611-7.387.256-17.082-10.091-30.32-20.73-39.388h93.923c29.954 34.262 56.579 72.339 69.853 115.877 11.293 37.04 12.587 76.582 4.07 124.439-1.403 7.886 1.877 16.002 8.358 20.68l6.161 4.443c5.149 3.716 8.395 9.476 8.903 15.805.508 6.328-1.774 12.532-6.265 17.021-9.339 9.341-24.976 8.24-32.826-2.639l-10.894-15.101c-5.09-7.057-14.119-10.054-22.466-7.46-50.73 15.763-128.609 20.01-193.79 10.567-4.092-.599-7.904 2.248-8.498 6.348s2.248 7.904 6.348 8.498c67.192 9.731 147.722 5.276 200.392-11.089 2.186-.682 4.534.089 5.85 1.911l10.895 15.101c13.205 18.304 39.659 20.407 55.598 4.471 7.604-7.604 11.47-18.112 10.608-28.831s-6.357-20.475-15.079-26.768l-6.16-4.443c-1.838-1.326-2.768-3.637-2.367-5.886 1.312-7.373 2.395-14.558 3.26-21.584h41.921c11.027 0 19.998-8.972 19.998-19.999v-14.298c0-4.728-1.658-9.072-4.411-12.499 2.754-3.427 4.411-7.771 4.411-12.499v-14.298c0-3.217-.781-6.248-2.137-8.943 4.918-3.647 8.125-9.476 8.125-16.055v-14.298c.001-6.578-3.206-12.407-8.124-16.054zm-489.001-23.241c0-2.757 2.242-4.999 4.999-4.999h75.51c-4.392 8.127-8.273 16.211-11.656 24.296h-57.867-5.987c-2.757 0-4.999-2.242-4.999-4.999zm4.999 97.888c-2.757 0-4.999-2.242-4.999-4.999v-14.298c0-2.757 2.242-4.999 4.999-4.999h5.987 42.334c-1.263 7.935-2.131 16.02-2.607 24.296zm55.532-55.563c-1.638 5.373-3.072 10.791-4.317 16.268h-45.228c-2.756 0-4.998-2.242-4.998-4.999v-14.298c0-2.757 2.242-4.999 4.998-4.999h52.153c-.919 2.672-1.79 5.347-2.608 8.028zm-55.532 94.859c-2.757 0-4.999-2.242-4.999-4.999v-14.298c0-2.757 2.242-4.999 4.999-4.999h45.275c-.01 7.899.315 15.985.977 24.296zm103.941-234.009c0-6.975 5.674-12.649 12.648-12.649 297.109.202 184.871.002 238.822 0 6.975 0 12.649 5.675 12.649 12.649s-5.675 12.648-12.649 12.648h-238.821c-6.975 0-12.649-5.674-12.649-12.648zm368.187 131.122c2.757 0 4.999 2.242 4.999 4.999v14.298c0 2.757-2.242 4.999-4.999 4.999h-5.987-45.354c-1.245-5.476-2.679-10.895-4.317-16.268-.817-2.681-1.688-5.356-2.608-8.028h52.279zm-.989 44.295v14.298c0 2.757-2.242 4.999-4.998 4.999h-39.852c-.477-8.276-1.345-16.361-2.607-24.296h42.459c2.756 0 4.998 2.242 4.998 4.999zm-18.989-83.591h13.99c2.756 0 4.998 2.242 4.998 4.999v14.298c0 2.757-2.242 4.999-4.998 4.999h-57.993c-3.383-8.085-7.263-16.168-11.656-24.296zm18.989 137.184c0 2.757-2.242 4.999-4.998 4.999h-40.39c.662-8.311.986-16.397.977-24.296h39.414c2.756 0 4.998 2.242 4.998 4.999v14.298z"/><path d="m229.875 396.49c-3.467-2.267-8.113-1.296-10.382 2.171-2.268 3.466-1.296 8.114 2.171 10.382 10.175 6.656 17.09 8.575 26.128 9.041v8.949c0 4.143 3.357 7.5 7.5 7.5s7.5-3.357 7.5-7.5v-9.53c17.76-3.33 28.133-17.902 30.42-31.511 2.92-17.37-6.169-32.474-23.155-38.479-2.386-.843-4.83-1.73-7.265-2.654v-38.66c8.997 1.092 15.458 4.964 15.643 5.076 3.5 2.186 8.113 1.136 10.316-2.359 2.211-3.504 1.162-8.135-2.341-10.345-.566-.357-10.172-6.287-23.618-7.465v-7.685c0-4.143-3.357-7.5-7.5-7.5s-7.5 3.357-7.5 7.5v8.573c-1.279.274-2.571.598-3.876.991-11.169 3.365-19.516 12.929-21.783 24.958-2.064 10.956 1.437 21.514 9.137 27.554 4.166 3.267 9.367 6.258 16.522 9.427v48.151c-6.421-.411-10.731-1.885-17.917-6.585zm10.651-62.796c-3.276-2.57-4.676-7.54-3.652-12.972.939-4.984 4.306-11.003 10.918-13.216v30.771c-2.747-1.458-5.226-2.984-7.266-4.583zm24.531 27.961c14.921 5.274 14.001 18.057 13.363 21.849-1.266 7.529-6.582 15.538-15.628 18.508v-41.168c.746.269 1.489.537 2.265.811z"/><path d="m167.285 93.747c.616 0 1.243-.077 1.868-.237 4.013-1.029 6.431-5.116 5.401-9.128l-2.58-10.059c-1.029-4.012-5.11-6.428-9.128-5.401-4.013 1.029-6.431 5.116-5.401 9.128l2.58 10.059c.87 3.387 3.917 5.638 7.26 5.638z"/><path d="m344.716 93.747c3.343 0 6.392-2.252 7.26-5.639l2.579-10.059c1.029-4.013-1.39-8.1-5.401-9.128-4.015-1.029-8.1 1.39-9.128 5.401l-2.579 10.059c-1.029 4.013 1.39 8.1 5.401 9.128.625.161 1.252.238 1.868.238z"/><path d="m240.123 69.901h31.754c4.143 0 7.5-3.357 7.5-7.5s-3.357-7.5-7.5-7.5h-31.754c-4.143 0-7.5 3.357-7.5 7.5s3.357 7.5 7.5 7.5z"/></g></svg>